<?xml version="1.0" encoding="UTF-8" standalone="no"?>
<!DOCTYPE svg PUBLIC "-//W3C//DTD SVG 1.1//EN" "http://www.w3.org/Graphics/SVG/1.1/DTD/svg11.dtd">
<svg xmlns="http://www.w3.org/2000/svg" version="1.1" viewbox="0 0 1000 1000" width="1000.0pt" height="1000.0pt">
<path d="M 0.00 0.00 L 1000.00 0.00 L 1000.00 1000.00 L 0.00 1000.00 L 0.00 0.00 Z" fill="#ffffff" />
<path d="M 493.97 28.03 C 505.76 27.99 517.50 29.71 528.73 33.28 C 535.26 35.51 540.55 39.30 546.68 42.31 C 551.54 44.69 556.15 47.47 560.85 50.16 C 643.30 96.69 725.86 143.08 808.23 189.78 C 834.56 204.74 860.95 219.61 887.12 234.87 C 891.99 237.61 895.74 241.43 899.65 245.35 C 905.33 251.18 911.42 257.59 915.16 264.86 C 920.09 274.04 923.63 283.84 926.15 293.94 C 926.46 295.26 926.60 296.60 926.63 297.96 C 926.79 399.02 926.72 499.95 926.74 601.00 C 926.70 608.44 926.88 615.86 926.49 623.29 C 926.18 622.45 925.85 621.61 925.52 620.77 C 918.99 615.56 911.70 611.70 904.62 607.33 C 901.27 605.60 897.61 604.62 894.31 602.74 C 886.38 598.33 877.82 595.81 869.42 592.50 C 864.45 590.79 859.23 589.83 854.19 588.33 C 846.31 585.93 837.88 585.64 829.93 583.70 C 825.59 583.20 821.26 583.66 816.93 583.23 C 810.37 582.30 803.64 582.30 797.08 583.23 C 792.89 583.72 788.98 583.03 784.86 583.82 C 779.92 584.85 774.91 585.40 769.95 586.28 C 768.72 586.61 767.65 585.77 766.52 585.38 C 765.40 578.30 763.63 571.56 761.24 564.81 L 760.00 563.89 C 759.00 558.32 757.01 553.03 754.26 548.09 C 751.27 542.71 748.80 536.74 745.30 531.73 C 742.44 527.61 739.98 523.31 736.86 519.36 C 732.73 514.17 728.31 509.20 723.99 504.16 C 715.52 496.69 706.88 489.44 697.64 482.90 C 687.27 476.28 676.51 470.45 664.95 466.20 C 662.75 464.99 661.05 464.47 658.54 464.31 C 657.85 463.78 657.16 463.24 656.47 462.70 C 655.12 462.61 653.77 462.51 652.43 462.40 C 651.78 461.84 651.13 461.27 650.48 460.70 C 648.15 460.62 646.00 460.31 643.84 459.38 C 640.70 457.97 637.46 458.96 634.26 457.72 C 630.22 456.16 625.47 456.44 621.17 456.55 C 616.98 453.65 610.38 454.73 605.48 454.39 C 607.92 451.05 608.57 448.52 608.81 444.40 C 609.43 444.55 610.04 444.70 610.66 444.84 C 611.78 445.11 612.91 445.35 614.04 445.57 C 616.01 443.01 618.22 440.70 620.56 438.49 C 653.53 405.55 686.46 372.57 719.44 339.64 C 720.38 338.61 721.13 337.49 721.92 336.35 C 723.75 335.10 725.50 333.78 727.02 332.15 C 733.59 325.39 740.41 318.86 746.95 312.06 C 758.33 300.79 769.60 289.40 780.96 278.09 C 787.09 271.80 793.55 265.80 799.48 259.33 C 791.57 252.79 784.57 244.93 777.20 237.81 C 771.03 231.59 764.86 225.33 758.46 219.34 C 744.58 205.65 730.86 191.80 717.08 178.02 C 714.25 179.15 712.46 181.26 710.44 183.42 C 694.99 198.97 679.37 214.37 663.97 229.98 C 657.88 235.51 652.33 241.64 646.35 247.30 C 643.99 249.76 642.03 252.38 638.97 254.08 L 640.28 255.27 C 639.54 255.38 638.80 255.52 638.06 255.68 C 604.53 289.58 570.60 323.12 536.98 356.94 C 535.28 358.76 533.41 360.34 531.40 361.81 C 531.40 363.21 531.40 364.62 531.40 366.03 C 532.19 366.50 532.99 366.97 533.77 367.47 C 530.89 367.21 528.19 367.89 525.48 368.79 C 524.82 369.24 524.16 369.71 523.52 370.19 C 514.77 373.29 506.15 376.92 497.56 380.44 C 493.60 381.77 489.83 383.41 486.01 385.07 C 483.52 386.02 482.01 385.01 479.94 383.80 C 476.30 380.13 472.18 377.09 468.17 373.85 C 461.25 367.67 453.00 362.88 445.27 357.74 C 435.36 351.78 424.87 345.64 413.75 342.30 C 413.19 341.75 412.64 341.21 412.08 340.66 C 410.63 340.53 409.19 340.40 407.74 340.27 C 407.61 339.72 407.48 339.17 407.35 338.62 C 404.89 338.21 402.45 337.72 400.01 337.26 C 401.08 337.06 402.15 336.87 403.22 336.67 C 401.06 336.59 398.91 336.50 396.75 336.41 C 395.96 335.82 395.16 335.24 394.36 334.65 C 391.19 334.72 388.80 333.30 385.89 332.47 C 381.87 331.85 378.04 330.57 373.99 330.24 C 370.87 329.93 368.18 328.36 365.00 328.30 C 360.72 327.64 356.04 328.14 351.95 326.72 C 345.68 326.10 339.30 326.32 333.00 326.26 C 326.36 326.31 319.64 326.07 313.03 326.70 C 306.63 328.58 299.34 327.20 292.90 329.86 C 282.10 331.11 272.07 334.36 261.79 337.70 C 260.39 338.24 258.96 338.46 257.49 338.64 C 256.77 339.22 256.06 339.81 255.35 340.41 C 254.44 340.47 253.53 340.52 252.62 340.58 C 251.94 341.15 251.26 341.71 250.57 342.27 C 239.48 345.63 228.82 352.20 218.66 357.70 C 212.50 361.40 206.89 365.91 200.78 369.71 C 193.83 375.55 186.63 380.92 180.44 387.44 C 173.97 394.13 167.11 399.96 161.70 407.63 C 157.34 412.86 153.35 418.09 149.80 423.92 C 142.51 434.01 137.56 444.99 131.75 455.92 C 131.62 456.75 131.50 457.59 131.38 458.43 C 130.82 459.20 130.26 459.98 129.71 460.75 C 128.98 464.41 127.54 467.70 125.76 470.96 C 124.08 477.79 121.54 484.46 119.68 491.26 C 118.47 499.60 115.44 508.43 114.90 516.98 C 113.98 529.90 114.10 543.04 114.22 556.00 C 114.58 563.23 114.35 570.71 115.66 577.83 C 116.68 581.51 117.00 585.27 117.66 589.02 C 118.55 590.57 118.77 592.23 118.98 593.98 C 119.63 602.31 124.39 610.10 125.76 618.30 C 116.97 620.10 107.54 619.60 98.92 622.22 C 94.81 623.03 90.81 623.09 86.74 624.42 C 81.15 626.29 75.42 627.88 69.77 629.59 C 67.10 629.96 64.43 630.35 61.78 630.80 C 61.81 522.86 61.76 414.95 61.84 307.00 C 61.91 301.80 61.39 297.09 62.82 292.02 C 64.58 285.61 66.52 279.29 69.19 273.20 C 74.89 259.80 84.14 248.51 95.31 239.28 C 101.52 234.38 108.67 230.48 115.48 226.48 C 145.19 209.46 175.02 192.68 204.82 175.81 C 271.72 138.02 338.64 100.26 405.66 62.65 C 421.93 53.06 438.69 44.33 455.14 35.00 C 467.68 29.93 480.56 28.49 493.97 28.03 Z" fill="#4c687b" />
<path d="M 717.08 178.02 C 730.86 191.80 744.58 205.65 758.46 219.34 C 752.08 224.15 746.80 230.49 741.04 236.03 C 733.29 243.62 725.80 251.47 718.06 259.07 C 713.86 263.38 709.62 267.22 706.04 272.05 C 705.24 271.25 704.44 270.44 703.63 269.65 C 690.36 256.48 677.10 243.28 663.97 229.98 C 679.37 214.37 694.99 198.97 710.44 183.42 C 712.46 181.26 714.25 179.15 717.08 178.02 Z" fill="#eb5c32" />
<path d="M 758.46 219.34 C 764.86 225.33 771.03 231.59 777.20 237.81 C 784.57 244.93 791.57 252.79 799.48 259.33 C 793.55 265.80 787.09 271.80 780.96 278.09 C 769.60 289.40 758.33 300.79 746.95 312.06 C 745.80 311.28 744.60 310.53 743.55 309.62 C 731.11 297.11 718.50 284.55 706.04 272.05 C 709.62 267.22 713.86 263.38 718.06 259.07 C 725.80 251.47 733.29 243.62 741.04 236.03 C 746.80 230.49 752.08 224.15 758.46 219.34 Z" fill="#d22d2d" />
<path d="M 663.97 229.98 C 677.10 243.28 690.36 256.48 703.63 269.65 C 703.41 271.75 703.93 273.53 702.20 275.09 C 696.56 280.82 690.77 286.41 685.24 292.25 C 683.70 294.06 681.83 294.21 679.62 294.63 C 666.59 281.46 653.44 268.32 640.28 255.27 L 638.97 254.08 C 642.03 252.38 643.99 249.76 646.35 247.30 C 652.33 241.64 657.88 235.51 663.97 229.98 Z" fill="#f9d8ac" />
<path d="M 638.06 255.68 C 638.80 255.52 639.54 255.38 640.28 255.27 C 653.44 268.32 666.59 281.46 679.62 294.63 C 680.28 295.30 680.94 295.96 681.61 296.62 C 679.09 297.59 677.51 298.76 675.74 300.79 C 671.88 305.25 667.37 309.06 663.54 313.55 C 661.25 316.23 658.89 318.84 656.25 321.19 C 649.03 327.69 642.40 334.76 635.65 341.61 C 624.75 352.72 613.58 363.58 602.92 374.92 C 597.90 379.89 592.68 384.65 587.64 389.59 C 582.73 394.84 578.09 400.24 572.36 404.65 L 571.94 405.05 C 568.18 402.76 565.88 399.32 562.66 396.43 C 552.93 386.61 543.53 377.41 533.77 367.47 C 532.99 366.97 532.19 366.50 531.40 366.03 C 531.40 364.62 531.40 363.21 531.40 361.81 C 533.41 360.34 535.28 358.76 536.98 356.94 C 570.60 323.12 604.53 289.58 638.06 255.68 Z" fill="#ec5c32" />
<path d="M 703.63 269.65 C 704.44 270.44 705.24 271.25 706.04 272.05 C 718.50 284.55 731.11 297.11 743.55 309.62 C 744.60 310.53 745.80 311.28 746.95 312.06 C 740.41 318.86 733.59 325.39 727.02 332.15 C 725.50 333.78 723.75 335.10 721.92 336.35 C 718.24 333.63 715.30 330.24 712.05 327.06 C 701.90 316.92 691.77 306.74 681.61 296.62 C 680.94 295.96 680.28 295.30 679.62 294.63 C 681.83 294.21 683.70 294.06 685.24 292.25 C 690.77 286.41 696.56 280.82 702.20 275.09 C 703.93 273.53 703.41 271.75 703.63 269.65 Z" fill="#f5c27e" />
<path d="M 681.61 296.62 C 691.77 306.74 701.90 316.92 712.05 327.06 C 715.30 330.24 718.24 333.63 721.92 336.35 C 721.13 337.49 720.38 338.61 719.44 339.64 C 686.46 372.57 653.53 405.55 620.56 438.49 C 618.22 440.70 616.01 443.01 614.04 445.57 C 612.91 445.35 611.78 445.11 610.66 444.84 C 599.50 433.21 587.92 421.95 576.55 410.53 C 575.10 408.88 572.13 407.06 572.36 404.65 C 578.09 400.24 582.73 394.84 587.64 389.59 C 592.68 384.65 597.90 379.89 602.92 374.92 C 613.58 363.58 624.75 352.72 635.65 341.61 C 642.40 334.76 649.03 327.69 656.25 321.19 C 658.89 318.84 661.25 316.23 663.54 313.55 C 667.37 309.06 671.88 305.25 675.74 300.79 C 677.51 298.76 679.09 297.59 681.61 296.62 Z" fill="#d22d2d" />
<path d="M 333.00 326.26 C 339.30 326.32 345.68 326.10 351.95 326.72 C 356.04 328.14 360.72 327.64 365.00 328.30 C 368.18 328.36 370.87 329.93 373.99 330.24 C 378.04 330.57 381.87 331.85 385.89 332.47 C 388.80 333.30 391.19 334.72 394.36 334.65 C 395.16 335.24 395.96 335.82 396.75 336.41 C 398.91 336.50 401.06 336.59 403.22 336.67 C 402.15 336.87 401.08 337.06 400.01 337.26 C 402.45 337.72 404.89 338.21 407.35 338.62 C 407.48 339.17 407.61 339.72 407.74 340.27 C 409.19 340.40 410.63 340.53 412.08 340.66 C 412.64 341.21 413.19 341.75 413.75 342.30 C 424.87 345.64 435.36 351.78 445.27 357.74 C 453.00 362.88 461.25 367.67 468.17 373.85 C 472.18 377.09 476.30 380.13 479.94 383.80 L 478.14 383.31 C 478.72 384.62 479.31 385.92 479.91 387.21 C 474.67 390.06 468.88 391.15 463.47 393.64 C 456.74 396.78 449.63 398.87 442.86 401.93 C 428.40 407.38 414.17 413.50 399.75 419.09 C 384.89 425.18 369.81 430.77 355.02 437.03 C 341.77 442.10 328.61 447.41 315.46 452.73 C 302.27 457.57 289.86 464.27 278.51 472.56 C 271.26 477.25 265.30 483.24 258.96 489.03 C 249.29 498.10 241.16 508.85 234.27 520.14 C 229.79 527.28 226.48 534.87 222.92 542.59 C 218.36 555.43 213.86 567.22 213.01 581.00 C 212.85 586.52 210.51 591.47 210.58 596.99 C 210.56 602.00 210.47 607.01 210.65 612.01 C 210.69 614.89 212.49 617.10 212.58 619.97 C 212.93 624.93 212.86 629.81 213.85 634.72 C 218.55 658.26 228.35 681.01 242.75 700.25 C 247.49 707.18 253.45 712.63 258.90 719.11 C 260.95 721.60 263.43 723.47 266.09 725.25 C 273.49 732.23 281.95 738.17 290.78 743.18 C 293.85 745.13 296.92 747.01 300.28 748.44 C 305.81 750.76 310.49 753.66 316.25 755.25 C 325.06 757.70 333.59 760.81 342.63 762.37 C 347.64 763.98 352.85 762.73 357.71 764.58 C 360.09 765.46 362.44 765.75 364.97 765.75 C 371.65 765.82 378.34 765.81 385.01 765.61 C 387.87 765.54 390.27 764.41 393.00 763.78 C 411.12 762.10 429.10 756.12 445.35 748.05 C 449.85 746.10 453.76 743.29 457.99 740.87 C 463.63 737.78 468.77 733.61 473.91 729.74 C 481.87 722.93 489.44 716.31 495.75 707.89 C 501.17 701.32 506.36 694.41 511.05 687.31 C 514.17 681.76 517.20 675.93 519.96 670.19 C 532.67 638.55 545.10 606.65 557.95 575.10 C 560.47 568.04 562.22 560.92 566.09 554.40 C 571.95 540.24 577.44 525.86 583.19 511.64 C 586.23 505.05 588.28 498.10 591.17 491.46 C 594.26 484.41 596.71 477.11 599.84 470.08 C 601.52 466.39 602.42 462.45 603.86 458.68 C 604.39 457.01 606.52 457.05 607.96 456.84 C 612.42 456.73 616.72 457.51 621.17 456.55 C 625.47 456.44 630.22 456.16 634.26 457.72 C 637.46 458.96 640.70 457.97 643.84 459.38 C 646.00 460.31 648.15 460.62 650.48 460.70 C 651.13 461.27 651.78 461.84 652.43 462.40 C 653.77 462.51 655.12 462.61 656.47 462.70 C 657.16 463.24 657.85 463.78 658.54 464.31 C 661.05 464.47 662.75 464.99 664.95 466.20 C 676.51 470.45 687.27 476.28 697.64 482.90 C 706.88 489.44 715.52 496.69 723.99 504.16 C 728.31 509.20 732.73 514.17 736.86 519.36 C 739.98 523.31 742.44 527.61 745.30 531.73 C 748.80 536.74 751.27 542.71 754.26 548.09 C 757.01 553.03 759.00 558.32 760.00 563.89 L 761.24 564.81 C 763.63 571.56 765.40 578.30 766.52 585.38 C 767.65 585.77 768.72 586.61 769.95 586.28 C 774.91 585.40 779.92 584.85 784.86 583.82 C 788.98 583.03 792.89 583.72 797.08 583.23 C 803.64 582.30 810.37 582.30 816.93 583.23 C 821.26 583.66 825.59 583.20 829.93 583.70 C 837.88 585.64 846.31 585.93 854.19 588.33 C 859.23 589.83 864.45 590.79 869.42 592.50 C 877.82 595.81 886.38 598.33 894.31 602.74 C 897.61 604.62 901.27 605.60 904.62 607.33 C 911.70 611.70 918.99 615.56 925.52 620.77 C 925.85 621.61 926.18 622.45 926.49 623.29 C 927.12 628.87 926.83 634.40 926.82 640.00 C 926.63 648.72 927.02 657.48 926.39 666.18 C 925.55 658.51 926.38 650.72 926.12 643.00 C 925.89 636.62 926.84 629.82 925.44 623.62 C 924.65 629.50 925.11 635.09 925.09 641.00 C 925.11 650.65 925.42 660.29 925.29 669.94 C 925.78 668.97 926.26 668.00 926.74 667.03 C 925.72 680.98 926.62 695.05 926.02 709.03 C 925.92 710.82 924.96 712.27 924.57 713.92 C 924.41 716.85 924.57 719.76 924.13 722.68 C 923.55 722.36 922.98 722.03 922.41 721.70 C 922.34 725.09 921.59 728.36 920.57 731.58 C 919.50 734.07 917.42 735.79 916.63 738.47 C 914.81 745.21 908.68 750.57 904.66 755.82 C 902.90 758.93 901.51 760.28 898.39 762.01 C 894.17 764.24 892.30 768.51 888.40 771.01 C 883.73 774.13 878.86 777.30 873.80 779.75 C 867.87 782.68 863.03 787.10 857.03 789.94 C 853.46 791.64 850.11 793.43 846.75 795.53 C 838.47 799.80 830.86 805.22 822.48 809.23 C 820.60 810.36 818.99 811.78 816.97 812.71 C 812.46 814.58 809.22 818.14 804.33 819.41 C 800.14 820.50 798.05 823.81 794.38 825.74 C 789.86 828.16 786.16 831.25 781.27 832.95 C 777.97 834.08 775.63 836.67 772.37 837.98 C 766.49 841.94 760.29 845.74 753.87 848.75 C 748.86 850.18 745.90 854.10 741.25 856.28 C 737.77 858.29 734.44 858.18 731.74 860.97 C 728.59 863.96 724.79 865.69 720.80 867.26 C 717.97 868.24 716.55 870.82 713.75 871.68 C 712.34 872.21 710.77 872.51 709.43 873.22 C 707.45 874.70 705.91 876.52 703.64 877.71 C 701.28 879.02 698.59 879.35 696.18 880.44 C 694.11 881.98 692.56 884.01 690.22 885.24 C 687.21 886.89 684.20 888.52 681.24 890.25 C 678.07 892.14 674.69 892.42 671.94 895.00 C 668.94 897.63 665.81 899.24 662.04 900.51 C 659.92 901.16 658.71 902.71 656.95 903.96 C 654.86 905.40 652.00 905.34 650.13 907.17 C 646.60 910.35 642.47 912.05 638.44 914.46 C 634.82 916.49 631.26 918.65 627.62 920.65 C 625.26 921.99 622.62 922.40 620.17 923.47 C 618.28 924.79 616.87 926.67 614.83 927.85 C 611.44 929.80 607.99 931.64 604.63 933.66 C 601.31 935.63 597.72 936.10 594.83 938.75 C 591.14 941.90 586.81 943.37 582.45 945.23 C 579.76 947.25 577.39 948.78 574.25 950.03 C 571.33 952.51 567.68 953.31 564.78 955.74 C 562.15 957.97 558.70 957.95 556.16 960.19 C 554.67 961.41 553.13 962.39 551.35 963.13 C 547.76 964.62 544.75 967.04 541.04 968.29 C 537.54 969.45 535.15 972.25 531.62 973.27 C 528.84 974.15 526.09 975.14 523.42 976.32 C 519.88 978.23 515.50 977.44 511.40 978.07 C 511.89 978.71 512.38 979.36 512.87 980.00 C 506.43 980.72 500.36 979.22 494.00 978.94 C 487.73 979.40 481.77 980.73 475.41 979.93 C 475.79 979.32 476.17 978.70 476.53 978.08 C 475.25 978.32 473.96 978.52 472.69 978.80 C 472.51 978.39 472.33 977.98 472.14 977.57 C 470.33 977.53 468.69 977.81 467.02 976.98 C 462.44 974.66 457.68 974.95 453.37 971.75 C 451.11 969.86 448.40 969.43 445.84 968.16 C 433.21 961.06 420.60 954.09 407.88 947.15 C 404.36 945.32 402.07 942.48 398.35 941.23 C 393.59 939.43 389.46 936.44 384.86 934.18 C 382.36 932.98 380.52 931.09 378.40 929.40 C 375.86 927.78 372.14 928.72 371.69 925.09 C 368.81 924.21 365.24 924.74 364.64 921.05 C 360.87 920.71 359.14 919.50 356.37 917.16 C 347.57 913.89 340.23 908.45 331.82 904.20 C 328.50 902.75 326.26 899.79 322.95 898.48 C 320.61 897.64 319.72 895.34 317.19 894.83 C 313.03 893.72 309.23 891.71 305.68 889.30 C 303.66 887.93 302.31 886.25 299.94 885.50 C 295.34 883.91 291.48 881.31 287.15 878.90 C 284.29 877.44 283.02 874.32 279.97 873.74 C 275.13 872.60 270.89 870.11 267.08 866.98 C 263.98 864.15 260.01 863.89 256.42 861.59 C 253.21 859.93 251.66 857.11 248.16 856.24 C 245.06 855.61 244.23 852.45 241.24 851.82 C 236.09 850.49 231.39 847.82 227.47 844.23 C 225.93 842.70 223.44 842.40 221.42 841.55 C 217.60 840.22 215.12 837.56 211.89 835.36 C 209.59 834.17 207.06 833.47 204.80 832.16 C 197.64 828.14 190.30 824.14 183.63 819.34 C 181.76 818.35 179.79 817.91 178.13 816.49 C 175.76 814.28 172.53 814.09 170.05 811.99 C 167.52 809.95 164.48 808.95 161.82 807.12 C 158.06 804.58 153.81 803.37 150.23 800.66 C 148.73 799.54 147.44 798.30 145.64 797.63 C 140.85 795.82 136.92 792.85 132.41 790.45 C 124.18 785.86 116.74 780.33 108.17 776.40 C 103.74 773.32 98.87 770.72 95.00 766.97 C 87.99 761.42 81.96 754.54 76.52 747.46 C 73.31 743.55 71.78 738.81 69.55 734.03 C 68.55 730.85 67.55 728.19 65.93 725.28 C 65.47 722.07 64.50 719.62 63.36 716.63 C 63.13 712.10 64.24 707.57 64.06 703.00 C 63.85 694.97 63.92 686.93 63.49 678.91 C 62.66 688.26 63.11 697.67 62.52 707.02 C 62.30 704.69 62.16 702.35 62.17 700.00 C 62.32 683.35 61.78 666.66 61.87 650.00 C 62.13 644.40 63.00 639.10 61.92 633.51 C 64.76 632.55 67.46 631.59 69.77 629.59 C 75.42 627.88 81.15 626.29 86.74 624.42 C 90.81 623.09 94.81 623.03 98.92 622.22 C 107.54 619.60 116.97 620.10 125.76 618.30 C 124.39 610.10 119.63 602.31 118.98 593.98 C 118.77 592.23 118.55 590.57 117.66 589.02 C 117.00 585.27 116.68 581.51 115.66 577.83 C 114.35 570.71 114.58 563.23 114.22 556.00 C 114.10 543.04 113.98 529.90 114.90 516.98 C 115.44 508.43 118.47 499.60 119.68 491.26 C 121.54 484.46 124.08 477.79 125.76 470.96 C 127.54 467.70 128.98 464.41 129.71 460.75 C 130.26 459.98 130.82 459.20 131.38 458.43 C 131.50 457.59 131.62 456.75 131.75 455.92 C 137.56 444.99 142.51 434.01 149.80 423.92 C 153.35 418.09 157.34 412.86 161.70 407.63 C 167.11 399.96 173.97 394.13 180.44 387.44 C 186.63 380.92 193.83 375.55 200.78 369.71 C 206.89 365.91 212.50 361.40 218.66 357.70 C 228.82 352.20 239.48 345.63 250.57 342.27 C 251.26 341.71 251.94 341.15 252.62 340.58 C 253.53 340.52 254.44 340.47 255.35 340.41 C 256.06 339.81 256.77 339.22 257.49 338.64 C 258.96 338.46 260.39 338.24 261.79 337.70 C 272.07 334.36 282.10 331.11 292.90 329.86 C 299.34 327.20 306.63 328.58 313.03 326.70 C 319.64 326.07 326.36 326.31 333.00 326.26 Z" fill="#f0f0f0" />
<path d="M 525.48 368.79 C 528.19 367.89 530.89 367.21 533.77 367.47 C 543.53 377.41 552.93 386.61 562.66 396.43 C 565.88 399.32 568.18 402.76 571.94 405.05 C 570.63 407.04 569.28 408.93 567.50 410.53 C 562.81 414.83 558.80 419.72 553.95 423.85 C 550.35 426.91 546.86 430.07 543.66 433.55 C 537.09 440.68 529.95 447.27 523.25 454.26 C 518.55 459.12 515.47 465.06 510.44 469.60 C 511.48 467.65 512.07 465.57 512.60 463.45 C 508.84 463.22 506.42 466.45 503.45 468.30 C 498.45 471.61 493.69 475.20 488.88 478.76 C 468.14 492.95 447.89 507.85 427.22 522.12 C 411.80 533.03 396.50 544.08 381.00 554.88 C 370.83 561.97 361.36 569.80 352.52 578.50 C 345.30 584.72 339.37 592.01 333.09 599.16 C 327.94 606.02 322.75 613.00 318.14 620.24 C 314.85 626.16 310.88 631.49 308.27 637.70 C 306.24 642.25 303.87 646.58 302.10 651.26 C 299.02 659.55 295.58 668.28 293.82 676.98 C 293.35 679.02 293.52 680.67 294.09 682.66 C 296.12 682.55 298.16 682.48 300.19 682.35 C 296.55 684.20 293.28 686.58 290.40 689.47 C 283.10 696.80 275.88 704.21 268.48 711.44 C 266.56 713.43 264.10 715.49 262.92 718.02 C 262.95 720.48 264.98 723.10 266.09 725.25 C 263.43 723.47 260.95 721.60 258.90 719.11 C 253.45 712.63 247.49 707.18 242.75 700.25 C 228.35 681.01 218.55 658.26 213.85 634.72 C 212.86 629.81 212.93 624.93 212.58 619.97 C 212.49 617.10 210.69 614.89 210.65 612.01 C 210.47 607.01 210.56 602.00 210.58 596.99 C 210.51 591.47 212.85 586.52 213.01 581.00 C 213.86 567.22 218.36 555.43 222.92 542.59 C 226.48 534.87 229.79 527.28 234.27 520.14 C 241.16 508.85 249.29 498.10 258.96 489.03 C 265.30 483.24 271.26 477.25 278.51 472.56 C 289.86 464.27 302.27 457.57 315.46 452.73 C 328.61 447.41 341.77 442.10 355.02 437.03 C 369.81 430.77 384.89 425.18 399.75 419.09 C 414.17 413.50 428.40 407.38 442.86 401.93 C 449.63 398.87 456.74 396.78 463.47 393.64 C 468.88 391.15 474.67 390.06 479.91 387.21 C 479.31 385.92 478.72 384.62 478.14 383.31 L 479.94 383.80 C 482.01 385.01 483.52 386.02 486.01 385.07 C 489.83 383.41 493.60 381.77 497.56 380.44 C 506.15 376.92 514.77 373.29 523.52 370.19 C 524.16 369.71 524.82 369.24 525.48 368.79 Z" fill="#d7d7d9" />
<path d="M 530.62 404.35 C 530.47 405.59 530.33 406.83 530.18 408.06 C 523.59 411.47 518.38 417.40 511.44 419.87 C 509.99 417.96 508.56 416.03 507.14 414.09 C 509.58 410.60 513.23 410.90 516.93 409.12 C 521.46 407.63 525.88 404.39 530.62 404.35 Z" fill="#8495a1" />
<path d="M 571.94 405.05 L 572.36 404.65 C 572.13 407.06 575.10 408.88 576.55 410.53 C 587.92 421.95 599.50 433.21 610.66 444.84 C 610.04 444.70 609.43 444.55 608.81 444.40 C 608.57 448.52 607.92 451.05 605.48 454.39 C 610.38 454.73 616.98 453.65 621.17 456.55 C 616.72 457.51 612.42 456.73 607.96 456.84 C 606.52 457.05 604.39 457.01 603.86 458.68 C 602.42 462.45 601.52 466.39 599.84 470.08 C 596.71 477.11 594.26 484.41 591.17 491.46 C 588.28 498.10 586.23 505.05 583.19 511.64 C 577.44 525.86 571.95 540.24 566.09 554.40 C 562.22 560.92 560.47 568.04 557.95 575.10 C 545.10 606.65 532.67 638.55 519.96 670.19 C 517.20 675.93 514.17 681.76 511.05 687.31 C 506.36 694.41 501.17 701.32 495.75 707.89 C 489.44 716.31 481.87 722.93 473.91 729.74 C 468.77 733.61 463.63 737.78 457.99 740.87 C 453.76 743.29 449.85 746.10 445.35 748.05 C 429.10 756.12 411.12 762.10 393.00 763.78 C 390.27 764.41 387.87 765.54 385.01 765.61 C 378.34 765.81 371.65 765.82 364.97 765.75 C 362.44 765.75 360.09 765.46 357.71 764.58 C 352.85 762.73 347.64 763.98 342.63 762.37 C 333.59 760.81 325.06 757.70 316.25 755.25 C 310.49 753.66 305.81 750.76 300.28 748.44 C 296.92 747.01 293.85 745.13 290.78 743.18 C 281.95 738.17 273.49 732.23 266.09 725.25 C 264.98 723.10 262.95 720.48 262.92 718.02 C 264.10 715.49 266.56 713.43 268.48 711.44 C 275.88 704.21 283.10 696.80 290.40 689.47 C 293.28 686.58 296.55 684.20 300.19 682.35 C 304.99 681.33 309.68 679.94 314.47 678.87 C 319.23 677.25 323.60 674.60 328.30 672.80 C 344.78 666.03 360.17 656.29 374.16 645.33 C 380.43 640.91 385.60 635.43 391.37 630.42 C 396.79 625.14 401.73 619.37 406.95 613.89 C 412.60 606.80 418.11 599.58 423.45 592.26 C 427.91 587.12 431.85 581.53 435.74 575.96 C 440.64 566.89 447.08 559.21 452.82 550.66 C 467.74 529.52 482.78 508.53 497.52 487.49 C 501.92 481.61 505.75 475.25 510.44 469.60 C 515.47 465.06 518.55 459.12 523.25 454.26 C 529.95 447.27 537.09 440.68 543.66 433.55 C 546.86 430.07 550.35 426.91 553.95 423.85 C 558.80 419.72 562.81 414.83 567.50 410.53 C 569.28 408.93 570.63 407.04 571.94 405.05 Z" fill="#c6c5cb" />
<path d="M 524.49 408.40 L 524.12 409.76 C 521.26 412.66 517.47 414.87 514.14 417.22 C 511.86 419.09 510.37 415.79 509.01 414.42 C 513.80 411.55 519.04 409.56 524.49 408.40 Z" fill="#516c7f" />
<path d="M 505.92 415.20 C 507.62 417.10 510.63 420.40 507.57 422.56 C 499.85 428.44 491.30 433.75 483.58 439.61 C 467.78 450.76 451.91 461.86 436.25 473.20 C 423.08 482.00 410.47 491.54 397.43 500.51 C 391.84 504.29 386.70 508.62 380.91 512.11 C 372.77 517.89 364.54 523.58 356.49 529.49 C 351.86 532.86 347.72 536.78 342.99 540.01 C 337.60 543.68 333.80 548.42 328.82 552.84 C 320.50 559.91 313.65 568.21 306.57 576.49 C 302.14 581.49 298.80 587.28 294.45 592.37 C 285.83 604.88 278.17 617.98 272.17 631.96 C 270.56 636.10 269.11 640.27 267.14 644.26 C 264.87 648.98 264.14 653.95 262.79 658.94 C 262.56 660.22 260.85 660.93 259.97 661.76 C 256.74 655.93 254.00 649.72 251.89 643.40 C 249.62 635.76 248.23 627.83 246.67 620.02 C 246.42 612.62 245.30 605.29 246.16 597.98 C 246.60 593.33 246.11 588.94 247.28 584.32 C 248.84 578.08 249.62 571.75 251.68 565.62 C 257.56 547.08 267.68 529.33 281.70 515.74 C 287.54 510.15 292.58 504.64 299.38 500.40 C 311.84 491.39 325.51 485.70 339.93 480.65 C 358.36 472.95 376.99 465.62 395.64 458.48 C 404.46 454.42 413.71 451.47 422.53 447.39 C 427.69 444.96 433.25 443.67 438.44 441.28 C 442.20 439.55 446.07 438.17 449.97 436.78 C 463.91 430.90 478.04 425.40 492.14 419.88 C 496.69 417.89 500.86 415.66 505.92 415.20 Z" fill="#f0f0f0" />
<path d="M 567.90 447.32 C 568.90 447.38 569.90 447.43 570.89 447.49 C 569.78 451.70 568.26 457.21 564.86 460.17 C 563.62 460.34 562.39 460.50 561.15 460.64 C 561.33 459.23 561.51 457.82 561.68 456.41 C 564.40 453.82 566.25 450.66 567.90 447.32 Z" fill="#5d7586" />
<path d="M 561.68 456.41 C 561.51 457.82 561.33 459.23 561.15 460.64 C 562.39 460.50 563.62 460.34 564.86 460.17 C 563.82 460.98 562.75 461.75 561.64 462.48 C 560.68 462.75 559.73 463.03 558.77 463.31 L 557.36 462.30 C 558.38 459.98 559.85 458.14 561.68 456.41 Z" fill="#9ba7b1" />
<path d="M 558.77 463.31 C 559.73 463.03 560.68 462.75 561.64 462.48 L 564.77 462.63 C 563.37 467.39 561.01 471.75 559.50 476.47 C 542.89 517.40 526.74 558.75 510.15 599.81 C 507.26 608.03 503.58 615.91 500.63 624.09 C 498.90 628.76 496.65 633.18 495.05 637.89 C 492.85 644.22 489.86 650.21 487.56 656.50 C 484.12 664.03 479.73 671.18 474.77 677.80 C 469.11 686.55 462.29 695.52 453.80 701.69 C 445.57 708.79 436.06 714.45 426.27 719.14 C 417.86 722.77 410.20 726.36 400.98 727.53 C 397.90 727.83 395.09 729.16 392.03 729.47 C 378.45 730.35 363.26 731.62 349.94 727.96 C 341.86 726.99 334.00 724.84 326.50 721.67 C 322.35 719.90 318.27 718.80 314.55 716.11 C 317.13 712.89 320.49 712.88 324.14 711.80 C 330.77 710.14 336.57 707.12 342.95 704.75 C 348.41 702.77 353.22 699.68 358.48 697.29 C 364.22 694.72 369.42 690.98 374.90 687.77 C 382.35 683.36 388.94 677.92 395.94 672.87 C 400.94 669.28 405.25 664.85 409.99 660.89 C 416.65 655.21 422.25 648.62 428.42 642.45 C 435.62 634.94 441.69 626.34 448.11 618.18 C 482.06 570.20 516.01 522.21 549.92 474.21 C 552.67 470.26 554.96 466.39 558.77 463.31 Z" fill="#f0f0f0" />
<path d="M 512.60 463.45 C 512.07 465.57 511.48 467.65 510.44 469.60 C 505.75 475.25 501.92 481.61 497.52 487.49 C 482.78 508.53 467.74 529.52 452.82 550.66 C 447.08 559.21 440.64 566.89 435.74 575.96 C 431.85 581.53 427.91 587.12 423.45 592.26 C 418.11 599.58 412.60 606.80 406.95 613.89 C 401.73 619.37 396.79 625.14 391.37 630.42 C 385.60 635.43 380.43 640.91 374.16 645.33 C 360.17 656.29 344.78 666.03 328.30 672.80 C 323.60 674.60 319.23 677.25 314.47 678.87 C 309.68 679.94 304.99 681.33 300.19 682.35 C 298.16 682.48 296.12 682.55 294.09 682.66 C 293.52 680.67 293.35 679.02 293.82 676.98 C 295.58 668.28 299.02 659.55 302.10 651.26 C 303.87 646.58 306.24 642.25 308.27 637.70 C 310.88 631.49 314.85 626.16 318.14 620.24 C 322.75 613.00 327.94 606.02 333.09 599.16 C 339.37 592.01 345.30 584.72 352.52 578.50 C 361.36 569.80 370.83 561.97 381.00 554.88 C 396.50 544.08 411.80 533.03 427.22 522.12 C 447.89 507.85 468.14 492.95 488.88 478.76 C 493.69 475.20 498.45 471.61 503.45 468.30 C 506.42 466.45 508.84 463.22 512.60 463.45 Z" fill="#f0f0f0" />
<path d="M 61.78 630.80 C 64.43 630.35 67.10 629.96 69.77 629.59 C 67.46 631.59 64.76 632.55 61.92 633.51 C 61.86 632.61 61.81 631.71 61.78 630.80 Z" fill="#8698a5" />
</svg>